<svg width="32" height="32" viewBox="0 0 32 32" fill="none" xmlns="http://www.w3.org/2000/svg">
<path d="M25 19.6064H21.1529V31H14.448V24.2561H10.5765V31H3.84709V19.6196H0L3.84709 15.431V8.18651H6.72936V12.2829L12.4939 6L25 19.6064Z" fill="#543FBA"/>
<path d="M4.34709 15.431V8.68651H6.22936V12.2829V13.5675L7.09779 12.621L12.4942 6.73923L23.8613 19.1064H21.1529H20.6529V19.6064V30.5H14.948V24.2561V23.7561H14.448H10.5765H10.0765V24.2561V30.5H4.34709V19.6196V19.1196H3.84709H1.13812L4.21534 15.7692L4.34709 15.6257V15.431Z" stroke="white"/>
<path d="M25.5207 5.88422L25.5207 5.88418L25.5144 5.88217C24.924 5.69402 24.6742 5.50427 24.5729 5.3896C24.4935 5.29965 24.4938 5.24455 24.4951 5.21714C24.5005 5.141 24.5204 5.10448 24.5329 5.08713C24.5463 5.06853 24.57 5.04632 24.6169 5.02613C24.7223 4.98087 24.9079 4.96434 25.1342 5.01805C25.491 5.10483 25.8957 5.36004 26.1281 5.55576L26.5279 5.89239L26.8465 5.47816L27.6832 4.39051L27.9835 4.00003L27.5975 3.69391C27.2503 3.41849 26.7633 3.04069 26.0857 2.81331V2.13347V1.63347H25.5857H24.3725H23.8725V2.13347V2.72643C22.7029 3.00797 21.9064 3.96743 21.9064 5.21514C21.9064 5.89289 22.1272 6.41479 22.4709 6.82098C22.8019 7.21216 23.2294 7.47473 23.6056 7.67729L23.6068 7.67794C23.7851 7.77332 24.0256 7.86334 24.2437 7.945L24.2671 7.95377C24.6403 8.09353 24.9983 8.22998 25.2579 8.39636C25.5261 8.56829 25.5237 8.66181 25.5213 8.68461C25.5111 8.76595 25.4725 8.82968 25.3967 8.8772C25.3135 8.92935 25.1492 8.98209 24.8715 8.94471L24.8709 8.94462C24.67 8.91785 24.4221 8.79714 24.1943 8.64849C24.0871 8.57854 23.9964 8.51047 23.933 8.46016C23.9014 8.43515 23.8771 8.41492 23.8613 8.40155L23.8444 8.38701L23.8416 8.38455L23.8415 8.38443L23.8413 8.38432L23.8412 8.38417L23.8411 8.38415L23.8409 8.38395L23.4709 8.05245L23.1371 8.42165L22.2168 9.43958L21.8807 9.81131L22.2532 10.1465C22.7533 10.5967 23.288 10.9255 23.8725 11.1182V11.741V12.241H24.3725H25.5857H26.0857V11.741V11.2069C27.2482 10.8966 28.0936 9.90236 28.0936 8.67331C28.0936 7.69959 27.6308 7.04788 27.08 6.62596C26.5599 6.22755 25.953 6.02709 25.6058 5.9124L25.5889 5.90682L25.4445 6.34364L25.5889 5.90682L25.5207 5.88422ZM31.5 7C31.5 10.5864 28.5864 13.5 25 13.5C21.4136 13.5 18.5 10.5864 18.5 7C18.5 3.41359 21.4136 0.5 25 0.5C28.5864 0.5 31.5 3.41359 31.5 7Z" fill="white" stroke="white"/>
</svg>
