<svg width="20" height="20" viewBox="0 0 20 20" fill="none" xmlns="http://www.w3.org/2000/svg">
<path d="M19.1994 8.78346L10.5633 1.35646C10.2392 1.07812 9.76088 1.07812 9.43681 1.35646L0.800609 8.78346C0.439009 9.09459 0.397809 9.63986 0.708676 10.0015C1.02041 10.3629 1.56548 10.4039 1.92668 10.0933L10 3.15046L18.0733 10.0932C18.2366 10.2334 18.4366 10.3018 18.6357 10.3018C18.879 10.3018 19.1206 10.2 19.2913 10.0015C19.6023 9.63986 19.561 9.09452 19.1994 8.78346Z" fill="#2B2C34"/>
<path d="M9.99991 9.1362C8.92824 9.1362 8.05664 10.0079 8.05664 11.0795C8.05664 12.1511 8.92831 13.0229 9.99991 13.0229C11.0715 13.0229 11.9432 12.1511 11.9432 11.0795C11.9432 10.0079 11.0716 9.1362 9.99991 9.1362Z" fill="#2B2C34"/>
<path d="M10.2819 4.36124C10.1195 4.22171 9.88032 4.22171 9.71786 4.36124L3.20973 9.97511C3.11486 10.057 3.06006 10.1763 3.06006 10.3018V18.4206C3.06006 18.6589 3.25339 18.8523 3.49179 18.8523H16.5081C16.7464 18.8523 16.9398 18.6589 16.9398 18.4206V10.3018C16.9398 10.1763 16.885 10.0569 16.7901 9.97511L10.2819 4.36124ZM10.3401 17.2827C10.2585 17.3876 10.1331 17.4491 9.99992 17.4491C9.86672 17.4491 9.74139 17.3877 9.65973 17.2827C9.31873 16.8462 6.32939 12.9628 6.32939 11.0795C6.32939 9.05537 7.97619 7.40898 9.99992 7.40898C12.0237 7.40898 13.6705 9.05537 13.6705 11.0795C13.6705 12.9628 10.6811 16.8462 10.3401 17.2827Z" fill="#2B2C34"/>
</svg>
