<svg width="20" height="20" viewBox="0 0 20 20" fill="none" xmlns="http://www.w3.org/2000/svg">
<path d="M2.5 17.6111C2.5 18.1121 2.69901 18.5925 3.05324 18.9468C3.40748 19.301 3.88792 19.5 4.38889 19.5H17.6111C18.1121 19.5 18.5925 19.301 18.9468 18.9468C19.301 18.5925 19.5 18.1121 19.5 17.6111V4.38889C19.5 3.88792 19.301 3.40748 18.9468 3.05324C18.5925 2.69901 18.1121 2.5 17.6111 2.5H4.38889C3.88792 2.5 3.40748 2.69901 3.05324 3.05324C2.69901 3.40748 2.5 3.88792 2.5 4.38889V17.6111ZM11 5.33333H16.6667V11H14.7778V7.22222H11V5.33333ZM5.33333 11H7.22222V14.7778H11V16.6667H5.33333V11Z" fill="#2B2C34"/>
</svg>
