<svg width="20" height="20" viewBox="0 0 20 20" fill="none" xmlns="http://www.w3.org/2000/svg">
<path d="M9.20008 2C6.11258 2 3.60008 4.5125 3.60008 7.6V11.9969C2.27195 11.7937 1.27508 11.6062 1.27508 11.6062C1.24851 11.6016 1.22195 11.6 1.19539 11.6C1.07976 11.6016 0.970389 11.6531 0.895389 11.7406C0.820389 11.8297 0.787577 11.9453 0.804765 12.0609C0.804765 12.0609 1.00633 13.4062 1.68133 14.8625C2.35789 16.3187 3.53445 17.9437 5.51258 18.3891C5.5407 18.3969 5.57039 18.4 5.60008 18.4H14.4001C14.4298 18.4 14.4595 18.3969 14.4876 18.3891C16.4657 17.9437 17.6423 16.3187 18.3188 14.8625C18.9938 13.4062 19.1954 12.0609 19.1954 12.0609C19.2141 11.9328 19.172 11.8031 19.0782 11.7125C18.986 11.6234 18.8548 11.5828 18.7282 11.6062C18.7282 11.6062 16.6985 11.9781 14.5813 12.2437C13.722 12.3516 13.0095 12.8844 12.5766 13.6C12.1438 14.3187 11.0376 14.8 10.0001 14.8C8.96414 14.8 7.86101 14.3219 7.42508 13.6062C6.99383 12.8969 6.28758 12.3562 5.42664 12.25C5.07195 12.2078 4.73758 12.1578 4.40008 12.1109V7.6C4.40008 5.44844 5.80789 3.63438 7.75476 3.02188C7.38601 3.51094 7.20008 4.13281 7.20008 4.8C7.20008 5.02031 7.37976 5.2 7.60008 5.2H12.4001C12.6204 5.2 12.8001 5.02031 12.8001 4.8C12.8001 4.04687 12.5563 3.34063 12.0704 2.825C11.5923 2.31563 10.8845 2.01094 10.0376 2.00156C10.0251 2 10.0126 2 10.0001 2H9.20008ZM10.0001 2.8C10.6813 2.8 11.1595 3.02344 11.4876 3.37188C11.7345 3.63438 11.8673 3.99844 11.9329 4.4H8.0657C8.13133 3.99063 8.26414 3.625 8.51101 3.36406C8.83758 3.01875 9.3157 2.8 10.0001 2.8ZM8.39383 6C8.17039 6 7.98914 6.17969 7.98914 6.4C7.98914 6.62031 8.17039 6.8 8.39383 6.8C8.61883 6.8 8.80008 6.62031 8.80008 6.4C8.80008 6.17969 8.61883 6 8.39383 6ZM10.0063 6C9.78133 6 9.60008 6.17969 9.60008 6.4C9.60008 6.62031 9.78133 6.8 10.0063 6.8C10.2298 6.8 10.411 6.62031 10.411 6.4C10.411 6.17969 10.2298 6 10.0063 6ZM11.6063 6C11.3813 6 11.2001 6.17969 11.2001 6.4C11.2001 6.62031 11.3813 6.8 11.6063 6.8C11.8298 6.8 12.011 6.62031 12.011 6.4C12.011 6.17969 11.8298 6 11.6063 6ZM8.39383 7.6C8.17039 7.6 7.98914 7.77969 7.98914 8C7.98914 8.22031 8.17039 8.4 8.39383 8.4C8.61883 8.4 8.80008 8.22031 8.80008 8C8.80008 7.77969 8.61883 7.6 8.39383 7.6ZM10.0063 7.6C9.78133 7.6 9.60008 7.77969 9.60008 8C9.60008 8.22031 9.78133 8.4 10.0063 8.4C10.2298 8.4 10.411 8.22031 10.411 8C10.411 7.77969 10.2298 7.6 10.0063 7.6ZM11.6063 7.6C11.3813 7.6 11.2001 7.77969 11.2001 8C11.2001 8.22031 11.3813 8.4 11.6063 8.4C11.8298 8.4 12.011 8.22031 12.011 8C12.011 7.77969 11.8298 7.6 11.6063 7.6ZM8.39383 9.2C8.17039 9.2 7.98914 9.37969 7.98914 9.6C7.98914 9.82031 8.17039 10 8.39383 10C8.61883 10 8.80008 9.82031 8.80008 9.6C8.80008 9.37969 8.61883 9.2 8.39383 9.2ZM10.0063 9.2C9.78133 9.2 9.60008 9.37969 9.60008 9.6C9.60008 9.82031 9.78133 10 10.0063 10C10.2298 10 10.411 9.82031 10.411 9.6C10.411 9.37969 10.2298 9.2 10.0063 9.2ZM11.6063 9.2C11.3813 9.2 11.2001 9.37969 11.2001 9.6C11.2001 9.82031 11.3813 10 11.6063 10C11.8298 10 12.011 9.82031 12.011 9.6C12.011 9.37969 11.8298 9.2 11.6063 9.2ZM8.39383 10.8C8.17039 10.8 7.98914 10.9797 7.98914 11.2C7.98914 11.4203 8.17039 11.6 8.39383 11.6C8.61883 11.6 8.80008 11.4203 8.80008 11.2C8.80008 10.9797 8.61883 10.8 8.39383 10.8ZM10.0063 10.8C9.78133 10.8 9.60008 10.9797 9.60008 11.2C9.60008 11.4203 9.78133 11.6 10.0063 11.6C10.2298 11.6 10.411 11.4203 10.411 11.2C10.411 10.9797 10.2298 10.8 10.0063 10.8ZM11.6063 10.8C11.3813 10.8 11.2001 10.9797 11.2001 11.2C11.2001 11.4203 11.3813 11.6 11.6063 11.6C11.8298 11.6 12.011 11.4203 12.011 11.2C12.011 10.9797 11.8298 10.8 11.6063 10.8ZM18.286 12.4828C18.1798 12.9562 18.0001 13.6469 17.5923 14.525C16.9735 15.8594 15.9563 17.2219 14.3376 17.6H5.66258C4.04383 17.2219 3.02664 15.8594 2.40789 14.525C2.00008 13.6469 1.82039 12.9578 1.7157 12.4844C2.16726 12.5687 3.43758 12.8141 5.32976 13.0453C5.9157 13.1172 6.41726 13.4859 6.74383 14.0219C7.38758 15.0828 8.73445 15.6 10.0001 15.6C11.2688 15.6 12.6188 15.0797 13.2626 14.0141C13.586 13.4781 14.0891 13.1125 14.6813 13.0375C16.5266 12.8062 17.8251 12.5656 18.286 12.4828Z" fill="#2B2C34"/>
<path d="M18.286 12.4828C18.1798 12.9562 18.0001 13.6469 17.5923 14.525C16.9735 15.8594 15.9563 17.2219 14.3376 17.6H5.66258C4.04383 17.2219 3.02664 15.8594 2.40789 14.525C2.00008 13.6469 1.82039 12.9578 1.7157 12.4844C2.16726 12.5687 3.43758 12.8141 5.32976 13.0453C5.9157 13.1172 6.41726 13.4859 6.74383 14.0219C7.38758 15.0828 8.73445 15.6 10.0001 15.6C11.2688 15.6 12.6188 15.0797 13.2626 14.0141C13.586 13.4781 14.0891 13.1125 14.6813 13.0375C16.5266 12.8062 17.8251 12.5656 18.286 12.4828Z" fill="#2B2C34"/>
<path d="M10.0001 2.8C10.6813 2.8 11.1595 3.02344 11.4876 3.37188C11.7345 3.63438 11.8673 3.99844 11.9329 4.4H8.0657C8.13133 3.99063 8.26414 3.625 8.51101 3.36406C8.83758 3.01875 9.3157 2.8 10.0001 2.8Z" fill="#2B2C34"/>
</svg>
