<svg width="20" height="20" viewBox="0 0 20 20" fill="none" xmlns="http://www.w3.org/2000/svg">
<path fill-rule="evenodd" clip-rule="evenodd" d="M17.125 6.87499H1.875V15.0056C1.875 15.8344 2.18411 16.6294 2.73369 17.215C3.28387 17.8012 4.02994 18.1306 4.80769 18.1306C7.41134 18.1306 11.5887 18.1306 14.1923 18.1306C14.9701 18.1306 15.7161 17.8012 16.2663 17.215C16.8159 16.6294 17.125 15.8344 17.125 15.0056V6.87499ZM5.39423 15H6.56731C6.89108 15 7.15385 14.72 7.15385 14.375C7.15385 14.03 6.89108 13.75 6.56731 13.75H5.39423C5.07046 13.75 4.80769 14.03 4.80769 14.375C4.80769 14.72 5.07046 15 5.39423 15ZM8.91346 15H10.0865C10.4103 15 10.6731 14.72 10.6731 14.375C10.6731 14.03 10.4103 13.75 10.0865 13.75H8.91346C8.58969 13.75 8.32692 14.03 8.32692 14.375C8.32692 14.72 8.58969 15 8.91346 15ZM12.4327 15H13.6058C13.9295 15 14.1923 14.72 14.1923 14.375C14.1923 14.03 13.9295 13.75 13.6058 13.75H12.4327C12.1089 13.75 11.8462 14.03 11.8462 14.375C11.8462 14.72 12.1089 15 12.4327 15ZM5.39423 12.5H6.56731C6.89108 12.5 7.15385 12.22 7.15385 11.875C7.15385 11.53 6.89108 11.25 6.56731 11.25H5.39423C5.07046 11.25 4.80769 11.53 4.80769 11.875C4.80769 12.22 5.07046 12.5 5.39423 12.5ZM8.91346 12.5H10.0865C10.4103 12.5 10.6731 12.22 10.6731 11.875C10.6731 11.53 10.4103 11.25 10.0865 11.25H8.91346C8.58969 11.25 8.32692 11.53 8.32692 11.875C8.32692 12.22 8.58969 12.5 8.91346 12.5ZM12.4327 12.5H13.6058C13.9295 12.5 14.1923 12.22 14.1923 11.875C14.1923 11.53 13.9295 11.25 13.6058 11.25H12.4327C12.1089 11.25 11.8462 11.53 11.8462 11.875C11.8462 12.22 12.1089 12.5 12.4327 12.5ZM5.39423 9.99999H6.56731C6.89108 9.99999 7.15385 9.71999 7.15385 9.37499C7.15385 9.02999 6.89108 8.74999 6.56731 8.74999H5.39423C5.07046 8.74999 4.80769 9.02999 4.80769 9.37499C4.80769 9.71999 5.07046 9.99999 5.39423 9.99999ZM8.91346 9.99999H10.0865C10.4103 9.99999 10.6731 9.71999 10.6731 9.37499C10.6731 9.02999 10.4103 8.74999 10.0865 8.74999H8.91346C8.58969 8.74999 8.32692 9.02999 8.32692 9.37499C8.32692 9.71999 8.58969 9.99999 8.91346 9.99999ZM12.4327 9.99999H13.6058C13.9295 9.99999 14.1923 9.71999 14.1923 9.37499C14.1923 9.02999 13.9295 8.74999 13.6058 8.74999H12.4327C12.1089 8.74999 11.8462 9.02999 11.8462 9.37499C11.8462 9.71999 12.1089 9.99999 12.4327 9.99999ZM5.98077 1.88062V3.74999C5.98077 4.09499 5.718 4.37499 5.39423 4.37499C5.07046 4.37499 4.80769 4.09499 4.80769 3.74999V1.88062C4.02994 1.88062 3.28387 2.20999 2.73369 2.79562C2.18411 3.38187 1.875 4.17687 1.875 5.00562V5.62499H17.125V5.00562C17.125 4.17687 16.8159 3.38187 16.2663 2.79562C15.7161 2.20999 14.9701 1.88062 14.1923 1.88062V3.74999C14.1923 4.09499 13.9295 4.37499 13.6058 4.37499C13.282 4.37499 13.0192 4.09499 13.0192 3.74999V1.88062H5.98077Z" fill="#2B2C34"/>
</svg>
