<svg width="19" height="19" viewBox="0 0 19 19" fill="none" xmlns="http://www.w3.org/2000/svg">
<g clip-path="url(#clip0_618_990)">
<path d="M9.47646 5.23409C9.20185 5.36706 8.92977 5.5513 8.67739 5.80398C7.41229 7.06934 6.26227 8.21936 6.26227 8.21936L6.26275 8.2201C6.25589 8.227 6.24899 8.23264 6.24208 8.23977C5.91463 8.56748 5.90164 9.08991 6.20405 9.43268C6.21603 9.44645 6.22884 9.46 6.24208 9.47299C6.58204 9.81343 7.13404 9.81424 7.4753 9.47299L8.80371 8.14458C9.03289 8.22856 9.25822 8.27754 9.47442 8.30204C9.76896 8.33469 10.0456 8.32245 10.2916 8.28775C10.8914 8.20277 10.8286 8.22752 11.1765 8.11319C11.5236 7.99934 11.9135 7.76607 11.9135 7.76607L12.1496 8.0019C12.1757 8.02717 12.7775 8.62997 13.0845 8.9365C13.1389 8.99108 13.185 9.03602 13.2159 9.0682C13.2514 9.10519 13.291 9.13199 13.3155 9.16772L14.8473 10.6996C15.2888 10.2042 15.7931 9.46634 15.7308 8.61928L11.9033 4.79227C11.9033 4.79227 10.5785 4.6976 9.47646 5.23409Z" fill="white"/>
<path d="M9.6898 14.6345C9.35085 14.2951 8.80063 14.2951 8.46145 14.6345L8.20933 14.8866C8.54773 14.5478 8.54747 13.9988 8.20855 13.6596C7.86937 13.3209 7.31989 13.3209 6.98071 13.6598C7.31989 13.3209 7.31989 12.7714 6.98071 12.432C6.64179 12.0925 6.09205 12.0931 5.75287 12.432C6.09205 12.0931 6.09205 11.5433 5.75287 11.2039C5.41391 10.865 4.86421 10.865 4.525 11.2044L3.76574 11.9634C3.42656 12.3028 3.42656 12.852 3.76574 13.1915C4.10466 13.5304 4.65417 13.5304 4.99332 13.1915C4.65414 13.5304 4.65414 14.0801 4.99332 14.4193C5.33276 14.7582 5.88223 14.7582 6.22141 14.4193C5.88223 14.7582 5.88223 15.3078 6.22141 15.6472C6.56059 15.9861 7.11007 15.9861 7.44929 15.6472L7.70171 15.3945C7.36331 15.734 7.36353 16.2829 7.70245 16.6221C8.04163 16.961 8.59111 16.961 8.93032 16.6221L9.68984 15.8626C10.0287 15.5229 10.0287 14.9734 9.6898 14.6345Z" fill="white"/>
<path d="M18.8511 6.61585L14.3815 2.14573C14.1829 1.94768 13.8619 1.94768 13.6638 2.14573L12.2303 3.57927C12.0322 3.77732 12.0322 4.09839 12.2303 4.2967L16.7004 8.76656C16.8982 8.9651 17.2198 8.9651 17.4176 8.76656L18.8511 7.33273C19.0497 7.13524 19.0497 6.81417 18.8511 6.61585ZM17.5771 7.60712C17.3637 7.81998 17.0186 7.81998 16.806 7.60712C16.5932 7.394 16.5932 7.04896 16.806 6.8361C17.0186 6.62324 17.3637 6.62324 17.5771 6.8361C17.7899 7.04896 17.7897 7.394 17.5771 7.60712Z" fill="white"/>
<path d="M6.7694 3.70585L5.33609 2.27232C5.13807 2.07427 4.81674 2.07427 4.61869 2.27232L0.14857 6.7424C-0.0494827 6.93994 -0.0494827 7.26153 0.14857 7.45932L1.58214 8.89337C1.77994 9.0912 2.10175 9.0912 2.29928 8.89337L6.7694 4.42325C6.96772 4.2252 6.96772 3.90413 6.7694 3.70585ZM2.19385 7.73367C1.98099 7.94627 1.63573 7.94627 1.42283 7.73367C1.21001 7.52059 1.21001 7.17551 1.42283 6.96265C1.63569 6.74983 1.98099 6.74983 2.19385 6.96265C2.40671 7.17551 2.40671 7.52055 2.19385 7.73367Z" fill="white"/>
<path d="M14.752 11.6081L14.4749 11.3305L11.7841 8.63972L11.6029 8.7201L11.4057 8.79131L11.3914 8.79566C11.3567 8.80664 11.032 8.90591 10.392 8.99649C10.0535 9.04373 9.71822 9.0496 9.39358 9.0126C9.26522 8.99831 9.1376 8.97734 9.01151 8.94981L7.98146 9.97937C7.36255 10.5983 6.35473 10.5983 5.73582 9.97937C5.71412 9.95744 5.69319 9.93521 5.67381 9.91328L5.66717 9.90586C5.27645 9.46281 5.17718 8.8564 5.36094 8.33016L5.75701 7.71381L5.75627 7.71306L8.17139 5.29821C8.26962 5.2002 8.37274 5.10884 8.47991 5.02256C7.7273 4.87479 7.09588 4.91843 7.09588 4.91843L3.26909 8.74589C3.21754 9.45053 3.70145 10.2228 4.04571 10.6738C4.66514 10.0814 5.65029 10.0891 6.25895 10.6981C6.48558 10.9244 6.62827 11.2034 6.68846 11.4958C6.98144 11.5566 7.26017 11.699 7.48679 11.9256C7.71342 12.1525 7.85611 12.4315 7.91633 12.7242C8.20905 12.7844 8.48826 12.9268 8.71467 13.1535C8.866 13.3048 8.98007 13.4794 9.05689 13.6662C9.4688 13.6611 9.88228 13.8153 10.1957 14.1284C10.8136 14.7458 10.8133 15.7513 10.1957 16.3685L9.94302 16.6216L10.0696 16.7482C10.4091 17.0877 10.9585 17.0877 11.2977 16.7482C11.6369 16.4093 11.6369 15.8596 11.2977 15.5204L11.5504 15.7738C11.8898 16.1127 12.439 16.1127 12.7782 15.7738C13.1174 15.4344 13.1177 14.8849 12.7782 14.5455C13.1177 14.8849 13.6669 14.8849 14.0061 14.5455C14.345 14.2068 14.3458 13.6571 14.0061 13.3176C14.3458 13.6571 14.895 13.6571 15.2339 13.3176C15.5734 12.9787 15.5734 12.4289 15.2339 12.09L14.752 11.6081Z" fill="white"/>
</g>
<defs>
<clipPath id="clip0_618_990">
<rect width="19" height="19" fill="white"/>
</clipPath>
</defs>
</svg>
