<svg width="19" height="17" viewBox="0 0 19 17" fill="none" xmlns="http://www.w3.org/2000/svg">
<rect y="1" width="19" height="15" rx="2" fill="white"/>
<path d="M8.64551 3H2V3.43999H8.64551V3Z" fill="#2B2C34"/>
<path d="M8.64551 4.31995H2V4.75994H8.64551V4.31995Z" fill="#2B2C34"/>
<path d="M8.64551 5.63986H2V6.07986H8.64551V5.63986Z" fill="#2B2C34"/>
<path d="M8.64551 6.95975H2V7.39974H8.64551V6.95975Z" fill="#2B2C34"/>
<path d="M9.40495 8.28024H2V8.72024H9.40495V8.28024Z" fill="#2B2C34"/>
<path d="M10.5441 9.60016H2V10.0402H10.5441V9.60016Z" fill="#2B2C34"/>
<path d="M17 10.9201H2V11.3601H17V10.9201Z" fill="#2B2C34"/>
<path d="M17 12.2401H2V12.6801H17V12.2401Z" fill="#2B2C34"/>
<path d="M17 13.56H2V14H17V13.56Z" fill="#2B2C34"/>
<path d="M13.4013 8.67865C15.0655 8.67865 16.4146 7.3938 16.4146 5.80885C16.4146 4.22391 15.0655 2.93906 13.4013 2.93906C11.7371 2.93906 10.388 4.22391 10.388 5.80885C10.388 7.3938 11.7371 8.67865 13.4013 8.67865Z" fill="#543FBA"/>
<path d="M13.2307 7.7484V7.26944C12.9616 7.26845 12.6981 7.19582 12.4701 7.05965L12.5906 6.74299C12.8033 6.8748 13.0517 6.94496 13.3055 6.94486C13.6588 6.94486 13.8957 6.7509 13.8957 6.48173C13.8957 6.22048 13.7004 6.06215 13.3346 5.91965C12.8317 5.73361 12.5158 5.51986 12.5158 5.10819C12.5218 4.70894 12.846 4.37961 13.2639 4.34819V3.86923H13.5715V4.3284C13.7978 4.32954 14.0198 4.38688 14.2157 4.49465L14.091 4.80736C13.9026 4.70019 13.6871 4.64413 13.4676 4.64507C13.0852 4.64507 12.9398 4.86277 12.9398 5.05277C12.9398 5.29819 13.1226 5.4209 13.5549 5.59111C14.0661 5.78903 14.3238 6.03444 14.3238 6.45403C14.3151 6.87331 13.9767 7.21932 13.5383 7.25762V7.74845L13.2307 7.7484Z" fill="white"/>
</svg>
