<svg width="20" height="20" viewBox="0 0 20 20" fill="none" xmlns="http://www.w3.org/2000/svg">
<g clip-path="url(#clip0_727_791)">
<path d="M19.9023 7.00917L17.5453 4.88787C17.4886 4.83687 17.4126 4.80956 17.3333 4.80417V2.40001C17.3333 2.32052 17.298 2.24432 17.2357 2.18792L14.9023 0.0878898C14.8396 0.0318105 14.755 0 14.6666 0H4.33331C4.14896 0 4 0.13439 4 0.299983V17.6999C4 17.8655 4.149 17.9999 4.33331 17.9999H7.99998H17C17.1843 17.9999 17.3333 17.8655 17.3333 17.6999V9.74097L19.9019 7.43367C19.9646 7.37756 19.9999 7.30139 19.9999 7.22158C19.9999 7.14209 19.9646 7.06557 19.9023 7.00917ZM15 1.02419L16.1953 2.09999H15V1.02419ZM6.02535 6.71487C5.97368 6.60267 6.00235 6.47368 6.09766 6.38786L7.04201 5.53795C7.01735 5.49624 6.99999 5.45063 6.99999 5.39995V3.3C6.99999 3.1344 7.149 3.00001 7.33331 3.00001H8.66665C8.851 3.00001 8.99996 3.1344 8.99996 3.3V3.77579L10.0976 2.78788C10.2276 2.6709 10.4386 2.6709 10.569 2.78788L14.5689 6.38786C14.6643 6.47368 14.6929 6.60267 14.6413 6.71487C14.5896 6.82706 14.4679 6.89997 14.3332 6.89997H13.6666V7.96048L13.5592 8.05737C13.5526 8.06249 13.5446 8.06427 13.5382 8.06996C13.5319 8.07535 13.5299 8.08286 13.5242 8.08886L12.9999 8.56166V6.89997H7.66666V11.1H9V9.59997C9 9.43437 9.14901 9.29998 9.33332 9.29998H11.0093C11.1937 9.29998 11.3426 9.43437 11.3426 9.59997V10.0562L11.2163 10.1703C11.205 10.1781 11.1916 10.182 11.1813 10.1913C11.1706 10.2006 11.1666 10.2129 11.1576 10.2231L10.6759 10.6575V9.90002H9.66663V11.1H10.1853L10.0446 11.2269C10.031 11.2359 10.0153 11.241 10.003 11.2521C9.9903 11.2632 9.98497 11.2776 9.97496 11.2899L9.51997 11.7H9.33332H7.33331C7.14896 11.7 6.99999 11.5656 6.99999 11.4V6.89997H6.33332C6.19865 6.89997 6.07666 6.8271 6.02535 6.71487ZM16.765 9.40378C16.765 9.40378 16.7647 9.40378 16.7647 9.40406L8.00033 17.276L6.13765 15.6L6.71398 15.0801L7.40995 15.7068C7.47528 15.7653 7.56027 15.7946 7.64561 15.7946C7.73096 15.7946 7.81626 15.7652 7.88127 15.7068C8.01161 15.5898 8.01161 15.3995 7.88127 15.2826L7.18494 14.6556L7.89128 14.0184L9.05993 15.0701C9.12526 15.1287 9.2106 15.158 9.29595 15.158C9.38093 15.158 9.46628 15.1286 9.5316 15.0701C9.66159 14.9528 9.66159 14.7633 9.5316 14.646L8.36228 13.5936L9.06863 12.9567L9.7673 13.5852C9.83231 13.644 9.91762 13.6731 10.003 13.6731C10.088 13.6731 10.1733 13.644 10.2386 13.5852C10.3686 13.4682 10.3686 13.2783 10.2386 13.161L9.53963 12.5319L10.246 11.895L11.417 12.9489C11.482 13.0077 11.5673 13.0368 11.6526 13.0368C11.738 13.0368 11.8233 13.0077 11.8883 12.9489C12.0183 12.8319 12.0183 12.642 11.8883 12.5247L10.7166 11.4702L11.4233 10.8333L12.1243 11.4639C12.1893 11.5224 12.2746 11.5518 12.3599 11.5518C12.4453 11.5518 12.5306 11.5224 12.5956 11.4639C12.7259 11.3466 12.7259 11.1567 12.5956 11.0397L11.8939 10.4085L12.6006 9.77131L13.7739 10.8276C13.8389 10.8861 13.9242 10.9155 14.0096 10.9155C14.0949 10.9155 14.1802 10.8861 14.2452 10.8276C14.3756 10.7103 14.3756 10.5207 14.2452 10.4034L13.0716 9.34681L13.5696 8.89771H13.5693L13.7779 8.70992L14.4809 9.34262C14.5463 9.40142 14.6312 9.43051 14.7166 9.43051C14.8019 9.43051 14.8872 9.40142 14.9522 9.34262C15.0826 9.22564 15.0826 9.03574 14.9522 8.91844L14.2486 8.28512L14.9552 7.64823L16.1309 8.70634C16.1962 8.76485 16.2816 8.79423 16.3666 8.79423C16.4519 8.79423 16.5372 8.76482 16.6022 8.70634C16.7326 8.58904 16.7326 8.39914 16.6022 8.28216L15.4259 7.22348L16.1326 6.58627L16.8379 7.22137C16.9032 7.27988 16.9886 7.30926 17.0739 7.30926C17.1589 7.30926 17.2442 7.27984 17.3096 7.22137C17.4395 7.10406 17.4395 6.91449 17.3096 6.79718L16.6032 6.16179L17.2359 5.59121L17.3099 5.52462L19.1949 7.2214L16.765 9.40378Z" fill="#2B2C34"/>
<path d="M8.33317 3.60004H7.6665V4.80694L8.33317 4.25312V3.60004Z" fill="#2B2C34"/>
<path d="M13.3335 6.3H13.5288L10.3335 3.42419L7.13818 6.3H7.33353H13.3335Z" fill="#2B2C34"/>
<path d="M2.66668 2.10001H0V2.70001H2.66668V2.10001Z" fill="#2B2C34"/>
<path d="M1.33334 0.000244141C0.598005 0.000244141 0 0.538449 0 1.20021V1.5002H2.66668V1.20021C2.66668 0.538449 2.06867 0.000244141 1.33334 0.000244141Z" fill="#2B2C34"/>
<path d="M0 15.3C0 15.336 0.00698956 15.3717 0.0210084 15.4053L1.02099 17.8053C1.07 17.9223 1.19434 18 1.33334 18C1.47234 18 1.59668 17.9223 1.64568 17.8053L2.64567 15.4053C2.65969 15.3717 2.66668 15.336 2.66668 15.3V14.7H0V15.3Z" fill="#2B2C34"/>
<path d="M2.66668 3.30005H0V14.1H2.66668V3.30005Z" fill="#2B2C34"/>
</g>
<defs>
<clipPath id="clip0_727_791">
<rect width="20" height="20" fill="white"/>
</clipPath>
</defs>
</svg>
