<svg width="19" height="19" viewBox="0 0 19 19" fill="none" xmlns="http://www.w3.org/2000/svg">
<path d="M2.57302 1.81805C1.15218 1.81805 0.000305176 2.96993 0.000305176 4.39137V14.6086C0.000305176 16.0301 1.15218 17.1813 2.57302 17.1813H16.427C17.8478 17.1813 18.9997 16.0301 18.9997 14.6086V4.39137C18.9997 2.97052 17.8478 1.81865 16.427 1.81865L2.57302 1.81805ZM11.4217 13.9846C11.4217 14.3699 11.11 14.6816 10.7246 14.6816H3.35618C2.97084 14.6816 2.65912 14.3693 2.65912 13.9846V13.3724C2.65912 12.1529 3.64771 11.1643 4.86727 11.1643H5.43727C5.73296 11.1643 5.97284 10.9244 5.97284 10.6287C5.97284 10.5189 5.92831 10.4138 5.84993 10.3372C5.52337 10.0195 5.24787 9.5938 5.04718 9.13484C5.01274 9.15443 4.97593 9.16571 4.93674 9.16571C4.61671 9.16571 4.24087 8.45855 4.24087 7.97643C4.24087 7.4943 4.2854 7.10362 4.60543 7.10362C4.63274 7.10362 4.66243 7.11015 4.69152 7.11549C4.71468 5.80924 4.95812 4.18118 7.04099 4.18118C9.03777 4.18118 9.3679 5.8128 9.39106 7.12024C9.43202 7.10955 9.4724 7.10362 9.51099 7.10362C9.83102 7.10362 9.87496 7.4943 9.87496 7.97643C9.87496 8.45855 9.49912 9.16571 9.17909 9.16571C9.12921 9.16571 9.08587 9.14434 9.04431 9.11346C8.84243 9.58134 8.56396 10.0154 8.23206 10.3378C8.15368 10.4144 8.10915 10.5201 8.10915 10.6293C8.10915 10.925 8.34902 11.1649 8.64471 11.1649H9.21471C10.4343 11.1649 11.4229 12.1535 11.4229 13.373V13.9852H11.4217V13.9846ZM16.3421 13.1955C16.3421 13.4805 16.1099 13.7121 15.8249 13.7121H12.0629V13.3724C12.0629 12.8161 11.9008 12.2977 11.6241 11.859H15.8249C16.1105 11.859 16.3421 12.0905 16.3421 12.3755V13.1955ZM16.3421 9.81884C16.3421 10.1044 16.1099 10.3354 15.8249 10.3354H9.39224V9.84437C9.40709 9.81765 9.4243 9.7933 9.43915 9.76599C9.93612 9.61162 10.2971 9.03449 10.4426 8.4823H15.8249C16.1099 8.4823 16.3409 8.71387 16.3409 8.99887V9.81884H16.3421ZM16.3421 6.44277C16.3421 6.72837 16.1099 6.95934 15.8249 6.95934H10.3167C10.2354 6.8008 10.1368 6.66899 10.005 6.58765C9.95156 5.98677 9.8239 5.50109 9.64637 5.10624H15.8255C16.1111 5.10624 16.3427 5.3378 16.3427 5.6228L16.3421 6.44277Z" fill="white"/>
</svg>
