<svg width="20" height="20" viewBox="0 0 20 20" fill="none" xmlns="http://www.w3.org/2000/svg">
<path d="M17.25 1.41666H13.5H12C11.586 1.41666 11.25 1.7333 11.25 2.12499C11.25 2.51668 11.586 2.83332 12 2.83332H12.75V4.95832H9.75H8.25C7.836 4.95832 7.5 5.27496 7.5 5.66666C7.5 6.05835 7.836 6.37499 8.25 6.37499H9V8.49999H6H4.5C4.086 8.49999 3.75 8.81663 3.75 9.20832C3.75 9.60002 4.086 9.91666 4.5 9.91666H5.25V12.0417H2.25H0.75C0.335999 12.0417 0 12.3583 0 12.75C0 13.1417 0.335999 13.4583 0.75 13.4583H1.5V16.2917C1.5 16.6833 1.836 17 2.25 17H17.25C17.6647 17 18 16.6833 18 16.2917V2.12499C18 1.7333 17.6647 1.41666 17.25 1.41666Z" fill="#2B2C34"/>
<path d="M0.75 6.375H5.25C5.664 6.375 6 6.05836 6 5.66667V0.708333C6 0.31664 5.664 0 5.25 0H0.75C0.335999 0 0 0.31664 0 0.708333V5.66667C0 6.05836 0.335999 6.375 0.75 6.375Z" fill="#2B2C34"/>
</svg>
