<svg width="20" height="20" viewBox="0 0 20 20" fill="none" xmlns="http://www.w3.org/2000/svg">
<path fill-rule="evenodd" clip-rule="evenodd" d="M7.71289 1.16907H8.38097V16.9313H7.78363L7.71289 1.16907Z" fill="#E4E2DC"/>
<path fill-rule="evenodd" clip-rule="evenodd" d="M7.71276 1.1691L8.38078 16.9313H14.4446V19.9956H7.67713L7.5382 16.9313L6.87061 1.1691H7.71276Z" fill="#2A2B2A"/>
<path fill-rule="evenodd" clip-rule="evenodd" d="M14.4444 17.7642V20H7.67684L7.57324 17.7642H14.4444Z" fill="#2B2C34"/>
<path fill-rule="evenodd" clip-rule="evenodd" d="M5.89105 1.16909L5.60156 0.336182H14.4446V1.16909H5.89105Z" fill="#543FBA"/>
<path d="M9.74845 16.4785L9.69482 13.7128L9.72547 11.9584L10.3613 11.7822L10.323 13.6324L10.2618 16.513L9.74845 16.4785Z" fill="#A98A7E"/>
<path d="M10.1525 8.18908L10.164 7.79453L9.79238 7.68344L9.63916 8.10098L10.1525 8.18908Z" fill="#735A4C"/>
<path d="M9.83282 11.1999L9.57617 11.9584L10.5606 13.3834L10.9437 16.5704L11.4915 16.6509L11.1965 13.2991L10.3998 11.3531L9.83282 11.1999Z" fill="#A98A7E"/>
<path d="M10.8057 11.0773L10.867 9.0433L10.1086 8.18907L9.57612 8.09714L9.70253 10.8935L9.22754 13.9771L11.4799 13.9963L10.8057 11.0773Z" fill="#705ECA"/>
<path d="M9.95524 10.0986L9.93995 11.4742L9.77738 11.6116L9.62305 10.2727L9.70261 8.95902L10.0435 8.72919L9.95524 10.0986Z" fill="#A98A7E"/>
<path d="M9.56055 8.33466L9.72909 9.08545L10.0529 9.13004L10.1083 8.44191" fill="#F8BB1E"/>
<path d="M10.0815 8.60661L10.8706 9.05096L10.3535 8.19673L9.57204 8.1048L9.56055 8.33463L10.0815 8.60661Z" fill="#543FBA"/>
<path d="M10.1799 7.73607L10.535 7.71647L10.5267 7.35724L10.6491 7.31935L10.43 6.83281L9.5336 7.23234L9.81688 7.76604" fill="#A98A7E"/>
<path d="M9.88965 11.4666L10.0209 12.3242L9.84278 12.2309L9.76627 11.9146L9.77109 11.6241L9.88965 11.4666Z" fill="#A98A7E"/>
<path fill-rule="evenodd" clip-rule="evenodd" d="M9.94183 11.4665L10.0435 11.8334L9.94649 11.993L9.94183 11.4665Z" fill="#A98A7E"/>
<path d="M10.028 7.26974L9.86328 7.21994L9.87477 7.54171L10.0012 7.54937L10.028 7.26974Z" fill="#A98A7E"/>
<path d="M9.78613 7.75627L9.52297 7.21358L9.8856 7.04231L9.94618 7.19786L9.76602 7.22206L9.88188 7.49604L10.0462 7.44702L10.1635 7.73612L9.78613 7.75627Z" fill="#735A4C"/>
<path d="M10.2618 16.4325L11.0853 16.6087L10.9704 16.919L9.85572 16.8884L9.74463 16.4708L10.2618 16.4325Z" fill="#543FBA"/>
<path d="M10.0345 6.97256L9.92477 7.23501L9.7839 7.25469L10.0957 8.10403L10.0763 9.13944L9.72441 9.20031L9.30921 8.09122L9.29487 6.79447L10.2627 6.49514L10.3444 6.79941L10.0345 6.97256Z" fill="#2A2B2B"/>
<path d="M11.4912 16.5092L12.288 16.6854L12.1731 16.9956L11.0584 16.965L10.9473 16.5475L11.4912 16.5092Z" fill="#543FBA"/>
</svg>
