<svg width="19" height="19" viewBox="0 0 19 19" fill="none" xmlns="http://www.w3.org/2000/svg">
<g clip-path="url(#clip0_571_1084)">
<path d="M6.53125 10.0938H4.75V11.875H6.53125V10.0938Z" fill="white"/>
<path d="M14.25 10.0938H12.4688V11.875H14.25V10.0938Z" fill="white"/>
<path d="M18.7658 8.84361L10.2238 0.301328C10.2238 0.301328 9.94561 0 9.50237 0C9.05914 0 8.797 0.294203 8.797 0.294203L5.9375 3.14806V1.48438C5.9375 1.3202 5.8048 1.1875 5.64062 1.1875H3.85938C3.6952 1.1875 3.5625 1.3202 3.5625 1.48438V5.51861L0.232453 8.84183C0.07125 9.00303 0 9.25419 0 9.5C0 9.99162 0.398703 10.3906 0.890625 10.3906C1.13644 10.3906 1.38403 10.3161 1.54523 10.1549L1.78125 9.91889V17.8125C1.78125 18.4689 2.31236 19 2.96875 19H16.0312C16.6876 19 17.2188 18.4689 17.2188 17.8125V9.91384L17.4574 10.1525C17.6186 10.3131 17.8636 10.3906 18.1094 10.3906C18.6013 10.3906 19 9.99192 19 9.5C19 9.25389 18.927 9.00481 18.7658 8.84361ZM7.125 12.1719C7.125 12.336 6.9923 12.4688 6.82812 12.4688H4.45312C4.28895 12.4688 4.15625 12.336 4.15625 12.1719V9.79688C4.15625 9.6327 4.28895 9.5 4.45312 9.5H6.82812C6.9923 9.5 7.125 9.6327 7.125 9.79688V12.1719ZM11.2812 18.4068H7.71875V13.9537C7.71875 13.7895 7.85145 13.6568 8.01562 13.6568H10.9844C11.1485 13.6568 11.2812 13.7895 11.2812 13.9537V18.4068ZM14.8438 12.1719C14.8438 12.336 14.711 12.4688 14.5469 12.4688H12.1719C12.0077 12.4688 11.875 12.336 11.875 12.1719V9.79688C11.875 9.6327 12.0077 9.5 12.1719 9.5H14.5469C14.711 9.5 14.8438 9.6327 14.8438 9.79688V12.1719ZM18.1094 9.79688C18.0274 9.79688 17.9307 9.78619 17.8772 9.73245L9.71256 1.5678C9.65467 1.50991 9.57867 1.48081 9.50267 1.48081C9.42667 1.48081 9.35067 1.50991 9.29278 1.5678L1.12545 9.73542C1.07172 9.78916 0.972562 9.79688 0.890625 9.79688C0.726453 9.79688 0.59375 9.66417 0.59375 9.5C0.59375 9.41806 0.5985 9.31534 0.652234 9.26161L9.21352 0.715469C9.21352 0.715469 9.32425 0.59375 9.50267 0.59375C9.68109 0.59375 9.7942 0.711906 9.7942 0.711906L18.346 9.26339C18.3997 9.31712 18.4062 9.41806 18.4062 9.5C18.4062 9.66387 18.2735 9.79688 18.1094 9.79688Z" fill="white"/>
</g>
<defs>
<clipPath id="clip0_571_1084">
<rect width="19" height="19" fill="white"/>
</clipPath>
</defs>
</svg>
