<svg width="20" height="20" viewBox="0 0 20 20" fill="none" xmlns="http://www.w3.org/2000/svg">
<g clip-path="url(#clip0_727_815)">
<path d="M3.9999 0.799988C3.7799 0.799988 3.5999 0.979988 3.5999 1.19999V2.59608L0.967871 4.47577C0.863871 4.54777 0.799902 4.67199 0.799902 4.79999V6.39999C0.799902 6.61999 0.979902 6.79999 1.1999 6.79999H9.9999C10.2199 6.79999 10.3999 6.61999 10.3999 6.39999V4.79999C10.3999 4.67199 10.3359 4.54777 10.2319 4.47577L7.5999 2.59608V1.19999C7.5999 0.979988 7.4199 0.799988 7.1999 0.799988H3.9999ZM2.79521 8.79999C2.57561 8.79999 2.396 8.97999 2.396 9.19999V9.59999H0.799121C0.579521 9.59999 0.399902 9.77999 0.399902 9.99999V18.8C0.399902 19.02 0.579521 19.2 0.799121 19.2H10.3233C10.5749 19.2 10.778 18.9957 10.778 18.7437V10.0328C10.778 9.7936 10.5848 9.59999 10.346 9.59999H8.78193V9.25389C8.78193 9.00309 8.57921 8.79999 8.32881 8.79999H2.79521ZM12.0343 9.59999C12.0075 9.59919 11.8365 9.59796 11.7101 9.73436C11.6121 9.83996 11.6019 9.96399 11.5999 9.99999V12.8H19.5999V9.99999C19.5999 9.77999 19.4203 9.59999 19.2007 9.59999H18.3624H14.7702H12.0343ZM2.396 11.2H8.78271C9.00231 11.2 9.18193 11.38 9.18193 11.6V17.2C9.18193 17.42 9.00231 17.6 8.78271 17.6H2.396C2.1764 17.6 1.99678 17.42 1.99678 17.2V11.6C1.99678 11.38 2.1764 11.2 2.396 11.2ZM13.1733 11.2H17.9632C18.1828 11.2 18.3624 11.38 18.3624 11.6C18.3624 11.82 18.1828 12 17.9632 12H13.1733C12.9537 12 12.7741 11.82 12.7741 11.6C12.7741 11.38 12.9537 11.2 13.1733 11.2ZM2.79521 12V16.8H8.3835V12H2.79521ZM11.5999 13.6V18.8C11.6007 18.8332 11.6073 18.9611 11.7069 19.0695C11.8301 19.2031 11.997 19.2008 12.0226 19.2H19.2007C19.4203 19.2 19.5999 19.02 19.5999 18.8V13.6H11.5999ZM13.1733 14.8C13.3929 14.8 13.5726 14.98 13.5726 15.2V17.2C13.5726 17.42 13.3929 17.6 13.1733 17.6C12.9537 17.6 12.7741 17.42 12.7741 17.2V15.2C12.7741 14.98 12.9537 14.8 13.1733 14.8Z" fill="#2B2C34"/>
</g>
<defs>
<clipPath id="clip0_727_815">
<rect width="20" height="20" fill="white"/>
</clipPath>
</defs>
</svg>
