<svg width="16" height="16" viewBox="0 0 16 16" fill="none" xmlns="http://www.w3.org/2000/svg">
<path fill-rule="evenodd" clip-rule="evenodd" d="M3.66659 6.66671V4.66671C3.66659 3.51743 4.12313 2.41523 4.93579 1.60258C5.74845 0.789921 6.85065 0.333374 7.99992 0.333374C9.14919 0.333374 10.2514 0.789921 11.0641 1.60258C11.8767 2.41523 12.3333 3.51743 12.3333 4.66671V6.66671H12.6666C13.7712 6.66671 14.6666 7.56211 14.6666 8.66671V13.3334C14.6666 14.438 13.7712 15.3334 12.6666 15.3334H3.33325C2.22869 15.3334 1.33325 14.438 1.33325 13.3334V8.66671C1.33325 7.56211 2.22869 6.66671 3.33325 6.66671H3.66659ZM6.35001 3.01679C6.78759 2.57921 7.38105 2.33337 7.99992 2.33337C8.61879 2.33337 9.21225 2.57921 9.64985 3.01679C10.0875 3.45437 10.3333 4.04787 10.3333 4.66671V6.66671H5.66659V4.66671C5.66659 4.04787 5.91242 3.45437 6.35001 3.01679Z" fill="white"/>
</svg>
