<svg width="32" height="32" viewBox="0 0 32 32" fill="none" xmlns="http://www.w3.org/2000/svg">
<g clip-path="url(#clip0_571_587)">
<path fill-rule="evenodd" clip-rule="evenodd" d="M25.475 12.8C28.9375 12.8 31.75 9.9875 31.75 6.525C31.75 3.0625 28.9375 0.25 25.475 0.25C22.0125 0.25 19.2 3.0625 19.2 6.525C19.2 9.9875 22.0125 12.8 25.475 12.8ZM25.8622 5.97062C26.4913 6.17851 27.8 6.61099 27.8 8.025C27.8 9.0125 27.0375 9.8125 26 9.925V10.775H24.9125V9.875C24.3375 9.75 23.8125 9.4625 23.3125 9.0125L24.1375 8.1C24.1375 8.1 24.7375 8.6375 25.3 8.7125C25.95 8.8 26.3375 8.5 26.3875 8.0875C26.4533 7.51385 25.6206 7.20197 24.9752 6.96025C24.7628 6.88068 24.5706 6.8087 24.4375 6.7375C23.7875 6.3875 23.15 5.925 23.15 4.925C23.15 3.9125 23.8625 3.1625 24.9125 3.075V2.1625H26V3.1125C26.6875 3.2625 27.1625 3.625 27.525 3.9125L26.775 4.8875C26.5375 4.6875 26.1125 4.4125 25.7 4.3125C25.175 4.1875 24.6125 4.325 24.575 4.9C24.5625 5.1375 24.6625 5.5875 25.8 5.95C25.8199 5.95663 25.8407 5.9635 25.8622 5.97062Z" fill="white"/>
<path d="M25.8375 20.9375H21.9V31.75H15.0375V25.35H11.075V31.75H4.1875V20.95H0.25L4.1875 16.975V10.1H7.1375V13.9875L13.0375 8.025L25.8375 20.9375Z" fill="#543FBA"/>
<path d="M4.6875 16.975V10.6H6.6375V13.9875V15.2037L7.49291 14.3392L13.0378 8.73554L24.6378 20.4375H21.9H21.4V20.9375V31.25H15.5375V25.35V24.85H15.0375H11.075H10.575V25.35V31.25H4.6875V20.95V20.45H4.1875H1.44906L4.54273 17.3269L4.6875 17.1807V16.975ZM25.9581 5.47566L25.9581 5.47561L25.9518 5.47361C25.4271 5.3064 25.2131 5.14011 25.131 5.04711C25.0756 4.98438 25.0731 4.94891 25.0739 4.93254L25.0739 4.93254C25.0779 4.8712 25.0933 4.84749 25.0983 4.84054C25.1041 4.83255 25.1173 4.8181 25.1521 4.80315C25.233 4.76835 25.3873 4.7522 25.5832 4.79866C25.8923 4.87389 26.2479 5.09733 26.4529 5.26996L26.8527 5.60658L27.1713 5.19236L27.9213 4.21736L28.2217 3.82688L27.8357 3.52075C27.5298 3.27813 27.0984 2.94297 26.5 2.7349V2.1625V1.6625H26H24.9125H24.4125V2.1625V2.65359C23.3637 2.92329 22.65 3.7952 22.65 4.925C22.65 5.54498 22.8524 6.02464 23.1683 6.39797C23.4715 6.75629 23.8618 6.9954 24.2004 7.17774L24.2017 7.17839C24.3647 7.26558 24.5831 7.34735 24.7773 7.42003L24.7999 7.42849C25.1357 7.55428 25.4511 7.67473 25.6782 7.82034C25.789 7.89134 25.8475 7.94944 25.8746 7.98841C25.8912 8.01237 25.8918 8.02149 25.8912 8.02734L25.8911 8.02733C25.8841 8.08568 25.8581 8.1294 25.8031 8.1639C25.7413 8.20269 25.6068 8.24929 25.3667 8.21697L25.3661 8.21689C25.1977 8.19444 24.9834 8.09143 24.781 7.95938C24.6866 7.89774 24.6066 7.83771 24.5507 7.79335C24.5229 7.77132 24.5015 7.75355 24.4878 7.74189L24.4731 7.72934L24.4711 7.72758L24.471 7.72746L24.4709 7.72735L24.4707 7.72716L24.4705 7.72702L24.4704 7.72693L24.1004 7.39548L23.7666 7.76468L22.9416 8.67718L22.6055 9.04891L22.978 9.38415C23.4207 9.78258 23.8946 10.0772 24.4125 10.254V10.775V11.275H24.9125H26H26.5V10.775V10.3356C27.5429 10.0404 28.3 9.1389 28.3 8.025C28.3 7.13297 27.875 6.5346 27.3711 6.14859C26.8978 5.78606 26.3468 5.60408 26.0356 5.50133L26.0191 5.49588L25.8622 5.97062L26.0191 5.49587L25.9581 5.47566ZM31.25 6.525C31.25 9.71136 28.6614 12.3 25.475 12.3C22.2886 12.3 19.7 9.71136 19.7 6.525C19.7 3.33864 22.2886 0.75 25.475 0.75C28.6614 0.75 31.25 3.33864 31.25 6.525Z" stroke="white"/>
</g>
<defs>
<clipPath id="clip0_571_587">
<rect width="32" height="32" fill="white"/>
</clipPath>
</defs>
</svg>
