<svg width="20" height="20" viewBox="0 0 20 20" fill="none" xmlns="http://www.w3.org/2000/svg">
<path d="M15.0002 13.3463C16.0374 13.7871 16.6668 14.366 16.6668 15C16.6668 16.3807 13.6821 17.5 10.0002 17.5C6.31826 17.5 3.3335 16.3807 3.3335 15C3.3335 14.366 3.96289 13.7871 5.00016 13.3463" stroke="#2B2C34" stroke-width="1.5" stroke-linecap="round" stroke-linejoin="round"/>
<path d="M14.1668 7.03703C14.1668 9.61433 10.0002 14.1667 10.0002 14.1667C10.0002 14.1667 5.8335 9.61433 5.8335 7.03703C5.8335 4.45971 7.69898 2.5 10.0002 2.5C12.3013 2.5 14.1668 4.45971 14.1668 7.03703Z" stroke="#2B2C34" stroke-width="1.5" stroke-linecap="round" stroke-linejoin="round"/>
<path d="M10.0003 7.5C10.4606 7.5 10.8337 7.12691 10.8337 6.66667C10.8337 6.20643 10.4606 5.83334 10.0003 5.83334C9.54009 5.83334 9.16699 6.20643 9.16699 6.66667C9.16699 7.12691 9.54009 7.5 10.0003 7.5Z" stroke="#2B2C34" stroke-width="1.5" stroke-linecap="round" stroke-linejoin="round"/>
</svg>
