<svg width="19" height="19" viewBox="0 0 19 19" fill="none" xmlns="http://www.w3.org/2000/svg">
<path d="M18.9997 10.9298C19.0001 10.9096 19 10.8894 18.9995 10.8691C19.0018 10.5684 18.8982 10.265 18.6881 9.95214C18.6641 9.91645 18.6407 9.88051 18.6181 9.84435C18.3994 9.45208 18.2585 9.04234 18.2408 8.56128C18.2105 7.78746 17.8615 7.17796 17.0497 6.9276C17.0319 6.9222 17.0147 6.91588 16.9972 6.90998C16.6929 6.74681 16.405 6.56399 16.1377 6.35019C16.0096 6.22554 15.8887 6.09184 15.77 5.95652C15.6438 5.81116 15.511 5.6946 15.3691 5.60693C15.0969 5.39158 14.7521 5.32538 14.3662 5.42288C14.0169 5.51187 13.6607 5.55855 13.3054 5.56127C12.9502 5.55855 12.5941 5.51187 12.2447 5.42288C11.8589 5.32538 11.5139 5.39158 11.2418 5.60693C11.0999 5.6946 10.9671 5.81116 10.8409 5.95652C10.7223 6.09184 10.6013 6.22557 10.4732 6.35019C10.2059 6.56402 9.91801 6.74683 9.61366 6.90998C9.59619 6.91588 9.57905 6.9222 9.56123 6.9276C8.74945 7.17796 8.40045 7.78746 8.37011 8.56128C8.35246 9.04231 8.21154 9.45206 7.99287 9.84435C7.97017 9.88051 7.94679 9.91645 7.9228 9.95214C7.71264 10.265 7.6091 10.5684 7.61146 10.8691C7.61092 10.8894 7.61084 10.9096 7.6112 10.9298C7.61092 10.9454 7.61087 10.9609 7.61115 10.9765C7.60792 11.2782 7.71149 11.5805 7.92246 11.897C7.94008 11.9232 7.95727 11.9496 7.97424 11.9761C8.20219 12.3771 8.34979 12.795 8.36786 13.2878C8.39821 14.0617 8.7472 14.6711 9.55901 14.9216C9.5807 14.9281 9.60175 14.9358 9.62291 14.9431C9.91399 15.0996 10.1903 15.2738 10.4475 15.4765C10.5844 15.6074 10.7128 15.7491 10.8386 15.8927C10.9701 16.0441 11.1087 16.164 11.2573 16.2528C11.5273 16.4598 11.8673 16.5223 12.2469 16.4263C12.5955 16.3375 12.951 16.2908 13.3054 16.2879C13.6599 16.2908 14.0154 16.3375 14.3639 16.4263C14.7436 16.5223 15.0835 16.4598 15.3535 16.2528C15.5021 16.164 15.6408 16.044 15.7722 15.8927C15.898 15.7492 16.0265 15.6075 16.1633 15.4765C16.4205 15.2738 16.6968 15.0996 16.9879 14.9431C17.0091 14.9358 17.0302 14.9282 17.0518 14.9216C17.8636 14.6712 18.2126 14.0617 18.243 13.2878C18.2611 12.7951 18.4087 12.3771 18.6367 11.9761C18.6536 11.9496 18.6708 11.9232 18.6884 11.897C18.8994 11.5805 19.003 11.2782 18.9998 10.9765C19.0001 10.9609 19 10.9454 18.9997 10.9298ZM13.3246 15.3489C13.3182 15.349 13.3119 15.349 13.3054 15.3491C13.299 15.349 13.2927 15.349 13.2863 15.3489C12.7945 15.3468 12.3152 15.2657 11.8639 15.117C10.1305 14.5123 8.83964 12.8088 8.82562 10.941C8.82545 10.9205 8.82576 10.9002 8.82585 10.8798C8.85254 9.02624 10.1344 7.3395 11.8545 6.7352C12.3087 6.58442 12.7914 6.5022 13.2867 6.50015C13.293 6.50001 13.2992 6.5001 13.3054 6.49995C13.3117 6.50007 13.3179 6.49998 13.3242 6.50015C13.8195 6.50223 14.3022 6.58442 14.7564 6.7352C16.4765 7.3395 17.7584 9.02624 17.785 10.8798C17.7852 10.9002 17.7855 10.9205 17.7853 10.941C17.7713 12.8089 16.4804 14.5124 14.747 15.117C14.2957 15.2657 13.8164 15.3468 13.3246 15.3489Z" fill="white"/>
<path d="M15.8509 13C15.8509 12.8179 15.8534 12.6587 15.8509 12.5018C15.8357 11.8266 15.6258 11.6016 14.9733 11.5333C14.9531 11.5306 14.9304 11.5281 14.9101 11.5281C14.7179 11.513 14.4903 11.4674 14.3563 11.346C14.1085 11.1235 14.0149 10.8251 14.1793 10.4837C14.3057 10.2208 14.3993 9.94252 14.5181 9.67442C14.7988 9.03969 14.5485 8.50356 14.1439 8.05344C13.9113 7.79293 13.6407 7.67663 13.3751 7.68419C13.1096 7.6766 12.839 7.79293 12.6064 8.05344C12.2018 8.50359 11.9514 9.03972 12.2321 9.67442C12.3509 9.94252 12.4446 10.2207 12.571 10.4837C12.7354 10.8226 12.6419 11.1236 12.394 11.346C12.2599 11.4649 12.0324 11.5104 11.8402 11.5281C11.8174 11.5306 11.7972 11.5333 11.7769 11.5333C11.127 11.6016 10.9146 11.8291 10.8994 12.5018C10.8969 12.6611 10.8969 12.823 10.8994 13.0076C10.8994 13.0557 10.8994 13.1062 10.8994 13.1593C11.739 13.1593 12.5609 13.1593 13.3778 13.1593C14.1946 13.1593 15.0165 13.1593 15.8561 13.1593C15.8509 13.1037 15.8509 13.0506 15.8509 13Z" fill="white"/>
<path d="M7.96298 14.7268H7.25488V15.4349H7.96298V14.7268Z" fill="white"/>
<path d="M7.57414 8.53208C7.596 7.97457 7.74464 7.49252 8.01603 7.09725C8.32042 6.65393 8.76133 6.34074 9.32657 6.16644L9.32983 6.16543C9.66803 6.0627 9.94265 5.77288 10.2409 5.43271C10.4 5.24973 10.5709 5.09729 10.7528 4.97523C10.7746 4.94508 10.7966 4.91476 10.8188 4.88422C10.0778 4.09013 9.35703 3.32387 8.61358 2.52979C8.04958 3.13673 4.85807 6.83402 4.27136 7.27405V6.24225H2.18499V9.6386C2.16476 9.66636 0.515901 11.6111 0 12.2687H2.11165V16.0798C2.20775 15.9938 2.29374 15.9179 2.3696 15.832C3.77316 14.2818 5.21465 12.7669 6.54992 11.1586C6.64768 11.0412 6.73602 10.9159 6.81776 10.7852C6.84005 10.3878 6.97287 9.98931 7.21405 9.59771C7.45351 9.21087 7.5609 8.89273 7.57414 8.53208Z" fill="white"/>
<path d="M7.25978 12.3388C7.16497 12.1965 7.08523 12.0533 7.02054 11.9094L3.306 16.0797H4.8045L7.56685 12.9935C7.50363 12.7681 7.40115 12.549 7.26152 12.3414L7.25978 12.3388Z" fill="white"/>
<path d="M7.24731 13.7V14.4082H7.81259C7.7159 14.19 7.65829 13.9522 7.64337 13.7H7.24731Z" fill="white"/>
<path d="M8.51935 15.4349H8.82611C8.717 15.3805 8.61472 15.3196 8.51935 15.2531V15.4349Z" fill="white"/>
</svg>
