<svg width="20" height="20" viewBox="0 0 20 20" fill="none" xmlns="http://www.w3.org/2000/svg">
<path d="M15.2732 4.69668V0.526296H12.8514V2.58257L10.0365 0.142181L0.581055 8.17522L2.01855 9.71316L3.47637 8.46367V18.8422H16.5232V8.54079L17.9576 9.79028L19.4334 8.2909L15.2732 4.69668ZM10.4678 15.337V16.3603H9.43809V15.42C8.71777 15.3755 8.03887 15.2035 7.63965 14.9892L7.95293 13.8405C8.40684 14.0548 9.03106 14.2691 9.71074 14.2691C10.2967 14.2691 10.7037 14.0548 10.7037 13.6314C10.7428 13.2451 10.3826 13.0308 9.61699 12.772C8.49199 12.4301 7.72715 11.9185 7.72715 10.9322C7.72715 10.0357 8.39902 9.35203 9.52402 9.13773V8.2034H10.5553V9.10139C11.2732 9.14589 11.7271 9.2712 12.085 9.44102L11.774 10.5533C11.499 10.428 11.0068 10.2137 10.242 10.2137C9.5709 10.2137 9.34434 10.5088 9.34434 10.7698C9.34434 11.1095 9.70293 11.326 10.6021 11.6211C11.8592 12.052 12.36 12.6007 12.36 13.4987C12.36 14.3967 11.6881 15.1671 10.4678 15.337Z" fill="#2B2C34"/>
</svg>
