<svg width="20" height="20" viewBox="0 0 20 20" fill="none" xmlns="http://www.w3.org/2000/svg">
<g clip-path="url(#clip0_721_448)">
<path d="M19.1551 16.0532V19.2728C19.1551 19.6745 18.8295 20 18.4279 20H1.57245C1.17082 20 0.845215 19.6745 0.845215 19.2728V16.0532C0.845215 14.633 1.69113 13.3734 3.00296 12.8354L6.19055 11.2524C6.3678 11.1644 6.57327 11.1526 6.75963 11.2192C6.9459 11.286 7.09697 11.426 7.17784 11.6067L8.59342 14.7697L8.83098 13.9744L8.54697 13.2803C8.45524 13.056 8.48113 12.8008 8.6162 12.5995C8.75128 12.3984 8.97769 12.2777 9.22 12.2777H10.7802C11.0226 12.2777 11.249 12.3984 11.384 12.5995C11.5191 12.8007 11.5451 13.0559 11.4533 13.2803L11.1694 13.9744L11.4069 14.7697L12.8225 11.6067C12.9034 11.426 13.0543 11.286 13.2407 11.2192C13.4271 11.1525 13.6325 11.1645 13.8098 11.2524L16.9974 12.8354C18.3092 13.3734 19.1551 14.6329 19.1551 16.0532ZM15.0878 6.98025C14.7718 8.18861 14.0559 8.55097 13.5847 8.6555C13.3171 9.17639 12.815 10.0715 12.304 10.5483C12.0698 10.767 11.7692 10.9499 11.4106 11.0921C10.9612 11.2704 10.4865 11.3608 10.0002 11.3608C9.5138 11.3608 9.03916 11.2703 8.58964 11.0921C8.23106 10.9498 7.93048 10.7669 7.69631 10.5483C7.18531 10.0714 6.68313 9.17639 6.41561 8.6555C5.94455 8.55097 5.22857 8.18861 4.91266 6.98025C4.72659 6.26863 4.78079 5.67851 5.07391 5.22617C5.1734 5.07267 5.28791 4.95515 5.40233 4.86527C5.40669 4.71129 5.41843 4.52686 5.44141 4.32324C5.44238 4.31403 5.44218 4.30491 5.44344 4.2957C5.4449 4.28562 5.44684 4.27476 5.44829 4.26448C5.54274 3.49197 5.81065 2.44902 6.53555 1.58992C6.74247 1.3447 6.96723 1.13729 7.19946 0.96198C7.86221 0.392704 8.73673 0 9.86772 0C9.91116 0 9.95508 0.00096964 9.9993 0.00203624C9.99949 0.00203624 9.99998 0.00203624 10.0002 0.00203624C10.0164 0.00203624 10.1011 0.00271499 10.2368 0.0138659C13.1555 0.204594 14.2452 2.36776 14.4192 3.53667C14.5471 4.05727 14.5886 4.53074 14.5982 4.86527C14.7127 4.95515 14.8271 5.07267 14.9266 5.22617C15.2197 5.67851 15.2739 6.26863 15.0878 6.98025ZM13.1475 5.238L13.1403 5.23742C13.1407 5.23121 13.1644 4.90318 13.1096 4.44677C12.7867 4.46898 12.3771 4.48885 11.9411 4.48885C10.8585 4.48885 10.066 4.37104 9.51836 4.12863C9.07077 3.93053 8.70512 3.71023 8.41481 3.50215C8.31145 3.6922 8.18471 3.88147 8.03103 4.04747C7.6391 4.47072 7.19103 4.74057 6.85699 4.90056C6.85068 5.10516 6.85951 5.23296 6.85989 5.23742C6.89141 5.59929 6.65142 5.92615 6.30245 6.00818C6.27229 6.03213 6.21431 6.20997 6.31951 6.61227C6.42026 6.99741 6.58326 7.2308 6.7574 7.24098C6.8215 7.22169 6.88375 7.21238 6.94357 7.21238C7.20344 7.21238 7.4185 7.38585 7.54281 7.65328C7.78551 8.17455 8.31145 9.13314 8.68854 9.48512C8.80315 9.59207 8.98622 9.69291 9.21311 9.77281C9.72062 9.95161 10.2791 9.95161 10.7866 9.77281C11.0136 9.69291 11.1968 9.59207 11.3115 9.48502C11.6901 9.13159 12.2151 8.17397 12.4571 7.65318C12.6099 7.32457 12.8997 7.1381 13.2413 7.2405C13.419 7.22751 13.5805 6.9947 13.6805 6.61217C13.7738 6.25544 13.7464 6.1097 13.7452 6.01759C13.7449 5.99509 13.7464 5.99917 13.7469 6.00634C13.808 5.62508 13.5329 5.27145 13.1475 5.238Z" fill="#2B2C34"/>
</g>
<defs>
<clipPath id="clip0_721_448">
<rect width="20" height="20" fill="white"/>
</clipPath>
</defs>
</svg>
