<svg width="19" height="19" viewBox="0 0 19 19" fill="none" xmlns="http://www.w3.org/2000/svg">
<g clip-path="url(#clip0_573_1126)">
<path d="M5.31356 4.02546V16.2627H1.44916C2.15762 16.2627 2.73728 15.6831 2.73728 14.9746V4.02546C2.73728 3.317 3.31694 2.73734 4.0254 2.73734C4.73386 2.73734 5.31356 3.31696 5.31356 4.02546Z" fill="white" fill-opacity="0.8"/>
<path d="M14.9746 7.5678V11.1102H12.7204V9.17798H11.4322V11.1102H9.17798V7.5678L12.0763 4.66949L14.9746 7.5678Z" fill="#543FBA"/>
<path d="M14.9746 7.5678L12.0763 4.6695L9.17798 7.5678V11.1102H11.4322V9.17798H12.7203V11.1102H14.9746V7.5678ZM18.839 4.02546V13.6865H18.8068C18.7424 13.5577 18.678 13.4288 18.5492 13.3322L17.9051 12.6881C17.5186 12.3017 17.0034 12.3017 16.617 12.6881L15.9729 13.3322L12.7203 16.5848L12.3983 16.9068V18.839H5.31357V16.2627V4.02546C5.31357 3.317 4.73391 2.73734 4.02545 2.73734H13.6865H17.5509C18.2593 2.7373 18.839 3.31696 18.839 4.02546Z" fill="white"/>
<path d="M18.7745 13.6865C18.9033 14.0085 18.8067 14.3306 18.5169 14.6204L17.8729 15.2644L16.9068 14.2983L15.9407 13.3322L16.5847 12.6881C16.9712 12.3017 17.4864 12.3017 17.8729 12.6881L18.5169 13.3322C18.6779 13.4288 18.7424 13.5576 18.7745 13.6865ZM14.6525 18.517L14.3305 18.839H12.3983V16.9068L12.7203 16.5848L13.6864 17.5509L14.6525 18.517Z" fill="white"/>
<path d="M17.9051 15.2644L14.6525 18.517L13.6864 17.5509L16.939 14.2983L17.9051 15.2644ZM16.939 14.2983L13.6864 17.5509L12.7203 16.5848L15.9729 13.3322L16.939 14.2983Z" fill="#543FBA"/>
<path d="M13.6865 0.161041V2.73732H4.02545C3.31698 2.73732 2.73732 3.31698 2.73732 4.02545V14.9746C2.73732 15.683 2.15766 16.2627 1.4492 16.2627C0.74074 16.2627 0.161041 15.683 0.161041 14.9746V0.161041H13.6865Z" fill="white" fill-opacity="0.8"/>
<path d="M14.3305 19H12.3983C12.3017 19 12.2373 18.9356 12.2373 18.839V16.9068C12.2373 16.8746 12.2694 16.8102 12.2694 16.778L16.4881 12.5593C16.7135 12.3339 16.9712 12.2373 17.2288 12.2373C17.5187 12.2373 17.7763 12.3661 18.0017 12.5593L18.6458 13.2034C18.8712 13.4288 18.9678 13.6864 18.9678 13.9763C18.9678 14.2661 18.839 14.5237 18.6458 14.717L14.4271 18.9356C14.4271 18.9678 14.3627 19 14.3305 19ZM12.5593 18.6779H14.2661L14.4271 18.5169L12.7203 16.8101L12.5593 16.9711V18.6779ZM13.9119 17.5508L14.6525 18.2915L16.1661 16.778L17.6796 15.2644L16.939 14.5237L13.9119 17.5508ZM12.9458 16.5847L13.6864 17.3254L16.7135 14.2983L15.9729 13.5576L12.9458 16.5847ZM16.1983 13.3322L17.9051 15.039L18.4203 14.5237C18.7424 14.2017 18.7424 13.7831 18.4203 13.461L17.7763 12.817C17.6152 12.6559 17.422 12.5593 17.261 12.5593C17.0678 12.5593 16.8746 12.6559 16.7458 12.817L16.1983 13.3322ZM11.1102 19H5.31356C5.21695 19 5.15253 18.9356 5.15253 18.839V16.4237H3.38135C3.28474 16.4237 3.22032 16.3593 3.22032 16.2627C3.22032 16.1661 3.28474 16.1017 3.38135 16.1017H5.15253V4.0254C5.15253 3.41354 4.63729 2.89827 4.0254 2.89827C3.41351 2.89827 2.8983 3.41354 2.8983 4.02543V14.9746C2.8983 15.7796 2.25422 16.4237 1.44915 16.4237C0.64408 16.4237 0 15.7796 0 14.9746V0.161029C0 0.0644193 0.0644193 0 0.161029 0H13.6864C13.7831 0 13.8475 0.0644193 13.8475 0.161029V1.44915C13.8475 1.54576 13.7831 1.61018 13.6864 1.61018C13.5898 1.61018 13.5254 1.54576 13.5254 1.44915V0.322021H0.322021V14.9746C0.322021 15.5864 0.837262 16.1017 1.44915 16.1017C2.06104 16.1017 2.57628 15.5865 2.57628 14.9746V4.02543C2.57628 3.22036 3.22036 2.57628 4.02543 2.57628C4.83051 2.57628 5.47459 3.22036 5.47459 4.02543V18.678H11.1102C11.2068 18.678 11.2712 18.7424 11.2712 18.839C11.2712 18.9356 11.2068 19 11.1102 19ZM12.3983 15.1356H7.88984C7.79323 15.1356 7.72881 15.0712 7.72881 14.9746C7.72881 14.878 7.79323 14.8135 7.88984 14.8135H12.3983C12.4949 14.8135 12.5594 14.878 12.5594 14.9746C12.5594 15.0712 12.4949 15.1356 12.3983 15.1356ZM14.3305 13.2034H12.3983C12.3017 13.2034 12.2373 13.139 12.2373 13.0424C12.2373 12.9458 12.3017 12.8813 12.3983 12.8813H14.3305C14.4271 12.8813 14.4915 12.9458 14.4915 13.0424C14.4915 13.139 14.4271 13.2034 14.3305 13.2034ZM11.1102 13.2034H7.88984C7.79323 13.2034 7.72881 13.139 7.72881 13.0424C7.72881 12.9458 7.79323 12.8813 7.88984 12.8813H11.1102C11.2068 12.8813 11.2712 12.9458 11.2712 13.0424C11.2712 13.139 11.2068 13.2034 11.1102 13.2034ZM18.839 11.9152C18.7424 11.9152 18.6779 11.8508 18.6779 11.7542V4.0254C18.6779 3.41354 18.1627 2.89827 17.5508 2.89827H6.27966C6.18305 2.89827 6.11863 2.83385 6.11863 2.73724C6.11863 2.64063 6.18305 2.57621 6.27966 2.57621H17.5508C18.3559 2.57621 19 3.22029 19 4.02536V11.7542C19 11.8509 18.9356 11.9152 18.839 11.9152ZM14.9746 11.2712H12.7203C12.6237 11.2712 12.5593 11.2068 12.5593 11.1102V9.33899H11.5932V11.1102C11.5932 11.2068 11.5288 11.2712 11.4322 11.2712H9.17796C9.08135 11.2712 9.01693 11.2068 9.01693 11.1102V7.95422L8.66268 8.30847C8.59826 8.37289 8.50165 8.37289 8.43727 8.30847C8.37289 8.24405 8.37285 8.14744 8.43727 8.08306L11.9797 4.54068C12.0441 4.47626 12.1407 4.47626 12.2051 4.54068L15.1034 7.43898L15.7474 8.08306C15.8119 8.14748 15.8119 8.24409 15.7474 8.30847C15.683 8.37285 15.5864 8.37289 15.522 8.30847L15.1678 7.95422V11.1102C15.1356 11.2068 15.0712 11.2712 14.9746 11.2712ZM12.8813 10.9491H14.8135V7.6322L12.0763 4.89492L9.33899 7.6322V10.9491H11.2712V9.17796C11.2712 9.08135 11.3356 9.01693 11.4322 9.01693H12.7203C12.817 9.01693 12.8814 9.08135 12.8814 9.17796L12.8813 10.9491Z" fill="#2B2C34"/>
</g>
<defs>
<clipPath id="clip0_573_1126">
<rect width="19" height="19" fill="white"/>
</clipPath>
</defs>
</svg>
