<svg width="20" height="20" viewBox="0 0 20 20" fill="none" xmlns="http://www.w3.org/2000/svg">
<path d="M15.2299 5.04961H4.91334C3.79623 5.04961 2.90088 5.9705 2.90088 7.08765V8.4107C3.16373 8.76558 3.33896 9.20968 3.33896 9.69144V10.0877H16.6569V9.69144C16.6569 9.12863 16.876 8.61714 17.2702 8.23945V7.08765C17.2702 5.97047 16.347 5.04961 15.2299 5.04961ZM6.19439 8.78781C5.77439 8.78781 5.43393 8.44738 5.43393 8.02738C5.43393 7.60738 5.77439 7.26691 6.19439 7.26691C6.61439 7.26691 6.95486 7.60738 6.95486 8.02738C6.95486 8.44738 6.61439 8.78781 6.19439 8.78781ZM13.8015 8.78781C13.3815 8.78781 13.041 8.44738 13.041 8.02738C13.041 7.60738 13.3815 7.26691 13.8015 7.26691C14.2215 7.26691 14.5619 7.60738 14.5619 8.02738C14.5619 8.44738 14.2215 8.78781 13.8015 8.78781Z" fill="#2B2C34"/>
<path d="M18.7713 10.9174C19.4473 10.9174 20 10.3675 20 9.69144C20 9.01542 19.4427 8.4655 18.7666 8.4655C18.0906 8.4655 17.5333 9.01546 17.5333 9.69144V12.5916C17.5333 12.8335 17.3519 13.0228 17.11 13.0228H2.88629C2.64434 13.0228 2.46297 12.8335 2.46297 12.5916V9.69144C2.46297 9.01542 1.90563 8.4655 1.22961 8.4655C0.553594 8.46546 0 9.01542 0 9.69144C0 10.3675 0.548125 10.9174 1.2241 10.9174C1.46605 10.9174 1.66129 11.1135 1.66129 11.3555C1.66129 11.5974 1.47555 11.7935 1.23359 11.7935C1.14191 11.7935 1.06113 11.787 0.973516 11.7755V13.6726C0.973516 14.3705 1.51961 14.9504 2.2175 14.9504H17.7788C18.4768 14.9504 19.0228 14.3705 19.0228 13.6726V11.7755C18.9352 11.787 18.8549 11.7935 18.7632 11.7935C18.5213 11.7935 18.3305 11.5974 18.3305 11.3555C18.3305 11.1135 18.5294 10.9174 18.7713 10.9174Z" fill="#2B2C34"/>
<path d="M16.6568 10.9636H3.33887V12.1465H16.6568V10.9636Z" fill="#2B2C34"/>
</svg>
