<svg width="20" height="20" viewBox="0 0 20 20" fill="none" xmlns="http://www.w3.org/2000/svg">
<path d="M15.2732 4.69668V0.526296H12.8514V2.58257L10.0365 0.142181L0.581055 8.17522L2.01855 9.71316L3.47637 8.46367V18.8422H16.5232V8.54079L17.9576 9.79028L19.4334 8.2909L15.2732 4.69668ZM11.7131 14.3248C11.8107 14.2944 11.9053 14.2729 12.0029 14.2729C12.292 14.2632 12.5389 14.347 12.7506 14.5287C12.9615 14.7074 13.0756 14.9298 13.0818 15.2109C13.092 15.2939 13.0818 15.3926 13.0592 15.4853L12.2303 14.76L11.4826 15.5349L12.3209 16.2565C12.224 16.2876 12.1295 16.3091 12.0318 16.3091C11.7428 16.3187 11.4951 16.2349 11.2842 16.0533C11.0732 15.862 10.9592 15.6395 10.949 15.3651C10.949 15.2695 10.9592 15.1612 10.9818 15.0685L10.7803 14.8868L9.57402 13.8405L7.53262 15.9762C7.40918 16.1334 7.21699 16.2416 6.9959 16.2416C6.63887 16.2416 6.34902 15.9665 6.34902 15.6269C6.34902 15.4452 6.42402 15.2784 6.57012 15.1612L8.68965 13.0753L7.40918 11.9615C7.3084 12.0045 7.19434 12.026 7.09668 12.026C6.80762 12.0356 6.56074 11.9518 6.34902 11.7702C6.13809 11.5878 6.02402 11.366 6.01465 11.0917C6.00449 11.0079 6.01465 10.9093 6.0373 10.8166L6.87559 11.5388L7.61699 10.7676L6.77871 10.0454C6.86621 10.0142 6.97012 9.99272 7.06777 9.99272C7.35684 9.98382 7.60449 10.0669 7.81543 10.2493C8.02637 10.428 8.14043 10.6623 8.15059 10.9367C8.15996 11.0294 8.15059 11.1191 8.12715 11.2118L9.44746 12.3597L10.4131 11.369L8.96934 10.1625L10.2795 8.7462L13.9889 11.8443L12.6787 13.2607L11.1967 12.0201L10.2631 13.0664L11.7131 14.3248Z" fill="#2B2C34"/>
</svg>
