<svg width="19" height="19" viewBox="0 0 19 19" fill="none" xmlns="http://www.w3.org/2000/svg">
<path d="M5.80962 10.2308C5.29808 9.46345 5.04231 8.58652 5.04231 7.59999C5.04231 5.91922 5.73654 4.53076 6.83269 3.69037C6.46731 3.03268 5.73654 2.55768 4.78654 2.55768C3.17885 2.55768 2.26538 3.87306 2.26538 5.37114C2.26538 6.17499 2.52115 6.86922 3.06923 7.34422C3.36154 7.63652 3.61731 8.00191 3.61731 8.36729C3.61731 8.73268 3.47115 9.09806 2.55769 9.49999C1.24231 10.0846 0.0365385 10.8884 0 12.0942C0.0365385 12.8981 0.548077 13.5192 1.31538 13.5192H2.52115C2.70385 13.5192 2.88654 13.4096 2.99615 13.2269C3.58077 12.1673 4.67692 11.5096 5.59038 11.0346C5.91923 10.8884 5.99231 10.4865 5.80962 10.2308Z" fill="white"/>
<path d="M16.4788 9.49999C15.5654 9.09806 15.4192 8.76922 15.4192 8.36729C15.4192 7.96537 15.675 7.59999 15.9673 7.34422C16.5154 6.83268 16.7711 6.17499 16.7711 5.37114C16.7711 3.87306 15.8942 2.55768 14.25 2.55768C13.3 2.55768 12.5692 3.03268 12.1673 3.69037C13.2635 4.53076 13.9577 5.91922 13.9577 7.59999C13.9577 8.58652 13.7019 9.46345 13.1904 10.2308C13.0077 10.5231 13.1173 10.8884 13.4096 11.0346C14.3231 11.4731 15.4192 12.1673 16.0038 13.2269C16.1135 13.4096 16.2961 13.5192 16.4788 13.5192H17.6846C18.4519 13.5192 18.9635 12.8981 18.9635 12.0942C19 10.8884 17.7942 10.0846 16.4788 9.49999Z" fill="white"/>
<path d="M11.9481 12.1673C10.9615 11.7288 10.7788 11.3269 10.7788 10.925C10.7788 10.4865 11.0712 10.0846 11.4 9.7923C11.9846 9.24422 12.3135 8.47692 12.3135 7.59999C12.3135 5.95576 11.3269 4.53076 9.53654 4.53076C7.74616 4.53076 6.75962 5.95576 6.75962 7.59999C6.75962 8.47692 7.08846 9.24422 7.67308 9.7923C8.00193 10.1211 8.29423 10.5231 8.29423 10.925C8.29423 11.3635 8.14808 11.7288 7.125 12.1673C5.66346 12.7885 4.275 13.4827 4.23846 14.7981C4.23846 15.675 4.89616 16.4058 5.73654 16.4058H9.53654H13.3365C14.1769 16.4058 14.8346 15.675 14.8346 14.7981C14.7981 13.5192 13.4096 12.825 11.9481 12.1673Z" fill="white"/>
</svg>
